  0
SECTION
  2
BLOCKS
  0
ENDSEC
  0
SECTION
  2
ENTITIES
  0
LINE
  8
0
 10
45.875
 20
19.9
 11
62.625
 21
19.9
  0
LINE
  8
0
 10
62.625
 20
19.9
 11
62.625
 21
17
  0
LINE
  8
0
 10
62.625
 20
17
 11
79.375
 21
17
  0
LINE
  8
0
 10
79.375
 20
17
 11
79.375
 21
19.9
  0
LINE
  8
0
 10
79.375
 20
19.9
 11
96.125
 21
19.9
  0
LINE
  8
0
 10
96.125
 20
19.9
 11
96.125
 21
17
  0
LINE
  8
0
 10
96.125
 20
17
 11
104.5
 21
17
  0
LINE
  8
0
 10
104.5
 20
17
 11
104.5
 21
29.5
  0
LINE
  8
0
 10
104.5
 20
29.5
 11
101.6
 21
29.5
  0
LINE
  8
0
 10
101.6
 20
29.5
 11
101.6
 21
54.5
  0
LINE
  8
0
 10
101.6
 20
54.5
 11
104.5
 21
54.5
  0
LINE
  8
0
 10
104.5
 20
54.5
 11
104.5
 21
79.5
  0
LINE
  8
0
 10
104.5
 20
79.5
 11
101.6
 21
79.5
  0
LINE
  8
0
 10
101.6
 20
79.5
 11
101.6
 21
104.5
  0
LINE
  8
0
 10
101.6
 20
104.5
 11
104.5
 21
104.5
  0
LINE
  8
0
 10
104.5
 20
104.5
 11
104.5
 21
117
  0
LINE
  8
0
 10
104.5
 20
117
 11
96.125
 21
117
  0
LINE
  8
0
 10
96.125
 20
117
 11
96.125
 21
114.1
  0
LINE
  8
0
 10
96.125
 20
114.1
 11
79.375
 21
114.1
  0
LINE
  8
0
 10
79.375
 20
114.1
 11
79.375
 21
117
  0
LINE
  8
0
 10
79.375
 20
117
 11
62.625
 21
117
  0
LINE
  8
0
 10
62.625
 20
117
 11
62.625
 21
114.1
  0
LINE
  8
0
 10
62.625
 20
114.1
 11
45.875
 21
114.1
  0
LINE
  8
0
 10
45.875
 20
114.1
 11
45.875
 21
117
  0
LINE
  8
0
 10
45.875
 20
117
 11
37.5
 21
117
  0
LINE
  8
0
 10
37.5
 20
117
 11
37.5
 21
104.5
  0
LINE
  8
0
 10
37.5
 20
104.5
 11
40.4
 21
104.5
  0
LINE
  8
0
 10
40.4
 20
104.5
 11
40.4
 21
79.5
  0
LINE
  8
0
 10
40.4
 20
79.5
 11
37.5
 21
79.5
  0
LINE
  8
0
 10
37.5
 20
79.5
 11
37.5
 21
54.5
  0
LINE
  8
0
 10
37.5
 20
54.5
 11
40.4
 21
54.5
  0
LINE
  8
0
 10
40.4
 20
54.5
 11
40.4
 21
29.5
  0
LINE
  8
0
 10
40.4
 20
29.5
 11
37.5
 21
29.5
  0
LINE
  8
0
 10
37.5
 20
29.5
 11
37.5
 21
17
  0
LINE
  8
0
 10
37.5
 20
17
 11
45.875
 21
17
  0
LINE
  8
0
 10
45.875
 20
17
 11
45.875
 21
19.9
  0
LINE
  8
0
 10
-25.125
 20
19.9
 11
-8.375
 21
19.9
  0
LINE
  8
0
 10
-8.375
 20
19.9
 11
-8.375
 21
17
  0
LINE
  8
0
 10
-8.375
 20
17
 11
8.375
 21
17
  0
LINE
  8
0
 10
8.375
 20
17
 11
8.375
 21
19.9
  0
LINE
  8
0
 10
8.375
 20
19.9
 11
25.125
 21
19.9
  0
LINE
  8
0
 10
25.125
 20
19.9
 11
25.125
 21
17
  0
LINE
  8
0
 10
25.125
 20
17
 11
33.5
 21
17
  0
LINE
  8
0
 10
33.5
 20
17
 11
33.5
 21
29.5
  0
LINE
  8
0
 10
33.5
 20
29.5
 11
30.6
 21
29.5
  0
LINE
  8
0
 10
30.6
 20
29.5
 11
30.6
 21
54.5
  0
LINE
  8
0
 10
30.6
 20
54.5
 11
33.5
 21
54.5
  0
LINE
  8
0
 10
33.5
 20
54.5
 11
33.5
 21
79.5
  0
LINE
  8
0
 10
33.5
 20
79.5
 11
30.6
 21
79.5
  0
LINE
  8
0
 10
30.6
 20
79.5
 11
30.6
 21
104.5
  0
LINE
  8
0
 10
30.6
 20
104.5
 11
33.5
 21
104.5
  0
LINE
  8
0
 10
33.5
 20
104.5
 11
33.5
 21
117
  0
LINE
  8
0
 10
33.5
 20
117
 11
25.125
 21
117
  0
LINE
  8
0
 10
25.125
 20
117
 11
25.125
 21
114.1
  0
LINE
  8
0
 10
25.125
 20
114.1
 11
8.375
 21
114.1
  0
LINE
  8
0
 10
8.375
 20
114.1
 11
8.375
 21
117
  0
LINE
  8
0
 10
8.375
 20
117
 11
-8.375
 21
117
  0
LINE
  8
0
 10
-8.375
 20
117
 11
-8.375
 21
114.1
  0
LINE
  8
0
 10
-8.375
 20
114.1
 11
-25.125
 21
114.1
  0
LINE
  8
0
 10
-25.125
 20
114.1
 11
-25.125
 21
117
  0
LINE
  8
0
 10
-25.125
 20
117
 11
-33.5
 21
117
  0
LINE
  8
0
 10
-33.5
 20
117
 11
-33.5
 21
104.5
  0
LINE
  8
0
 10
-33.5
 20
104.5
 11
-30.6
 21
104.5
  0
LINE
  8
0
 10
-30.6
 20
104.5
 11
-30.6
 21
79.5
  0
LINE
  8
0
 10
-30.6
 20
79.5
 11
-33.5
 21
79.5
  0
LINE
  8
0
 10
-33.5
 20
79.5
 11
-33.5
 21
54.5
  0
LINE
  8
0
 10
-33.5
 20
54.5
 11
-30.6
 21
54.5
  0
LINE
  8
0
 10
-30.6
 20
54.5
 11
-30.6
 21
29.5
  0
LINE
  8
0
 10
-30.6
 20
29.5
 11
-33.5
 21
29.5
  0
LINE
  8
0
 10
-33.5
 20
29.5
 11
-33.5
 21
17
  0
LINE
  8
0
 10
-33.5
 20
17
 11
-25.125
 21
17
  0
LINE
  8
0
 10
-25.125
 20
17
 11
-25.125
 21
19.9
  0
LINE
  8
0
 10
19.5401
 20
86.9042
 11
19.3646
 21
86.9463
  0
LINE
  8
0
 10
19.3646
 20
86.9463
 11
19.1979
 21
87.0153
  0
LINE
  8
0
 10
19.1979
 20
87.0153
 11
19.044
 21
87.1096
  0
LINE
  8
0
 10
19.044
 20
87.1096
 11
18.9068
 21
87.2268
  0
LINE
  8
0
 10
18.9068
 20
87.2268
 11
18.7896
 21
87.364
  0
LINE
  8
0
 10
18.7896
 20
87.364
 11
18.6953
 21
87.5179
  0
LINE
  8
0
 10
18.6953
 20
87.5179
 11
18.6263
 21
87.6846
  0
LINE
  8
0
 10
18.6263
 20
87.6846
 11
18.5842
 21
87.8601
  0
LINE
  8
0
 10
18.5842
 20
87.8601
 11
18.57
 21
88.04
  0
LINE
  8
0
 10
18.57
 20
88.04
 11
18.5842
 21
88.2199
  0
LINE
  8
0
 10
18.5842
 20
88.2199
 11
18.6263
 21
88.3954
  0
LINE
  8
0
 10
18.6263
 20
88.3954
 11
18.6953
 21
88.5621
  0
LINE
  8
0
 10
18.6953
 20
88.5621
 11
18.7896
 21
88.7159
  0
LINE
  8
0
 10
18.7896
 20
88.7159
 11
18.9068
 21
88.8532
  0
LINE
  8
0
 10
18.9068
 20
88.8532
 11
19.044
 21
88.9704
  0
LINE
  8
0
 10
19.044
 20
88.9704
 11
19.1979
 21
89.0647
  0
LINE
  8
0
 10
19.1979
 20
89.0647
 11
19.3646
 21
89.1337
  0
LINE
  8
0
 10
19.3646
 20
89.1337
 11
19.5401
 21
89.1758
  0
LINE
  8
0
 10
19.5401
 20
89.1758
 11
19.72
 21
89.19
  0
LINE
  8
0
 10
19.72
 20
89.19
 11
19.8999
 21
89.1758
  0
LINE
  8
0
 10
19.8999
 20
89.1758
 11
20.0754
 21
89.1337
  0
LINE
  8
0
 10
20.0754
 20
89.1337
 11
20.2421
 21
89.0647
  0
LINE
  8
0
 10
20.2421
 20
89.0647
 11
20.396
 21
88.9704
  0
LINE
  8
0
 10
20.396
 20
88.9704
 11
20.5332
 21
88.8532
  0
LINE
  8
0
 10
20.5332
 20
88.8532
 11
20.6504
 21
88.7159
  0
LINE
  8
0
 10
20.6504
 20
88.7159
 11
20.7446
 21
88.5621
  0
LINE
  8
0
 10
20.7446
 20
88.5621
 11
20.8137
 21
88.3954
  0
LINE
  8
0
 10
20.8137
 20
88.3954
 11
20.8558
 21
88.2199
  0
LINE
  8
0
 10
20.8558
 20
88.2199
 11
20.87
 21
88.04
  0
LINE
  8
0
 10
20.87
 20
88.04
 11
20.8558
 21
87.8601
  0
LINE
  8
0
 10
20.8558
 20
87.8601
 11
20.8137
 21
87.6846
  0
LINE
  8
0
 10
20.8137
 20
87.6846
 11
20.7446
 21
87.5179
  0
LINE
  8
0
 10
20.7446
 20
87.5179
 11
20.6504
 21
87.364
  0
LINE
  8
0
 10
20.6504
 20
87.364
 11
20.5332
 21
87.2268
  0
LINE
  8
0
 10
20.5332
 20
87.2268
 11
20.396
 21
87.1096
  0
LINE
  8
0
 10
20.396
 20
87.1096
 11
20.2421
 21
87.0153
  0
LINE
  8
0
 10
20.2421
 20
87.0153
 11
20.0754
 21
86.9463
  0
LINE
  8
0
 10
20.0754
 20
86.9463
 11
19.8999
 21
86.9042
  0
LINE
  8
0
 10
19.8999
 20
86.9042
 11
19.72
 21
86.89
  0
LINE
  8
0
 10
19.72
 20
86.89
 11
19.5401
 21
86.9042
  0
LINE
  8
0
 10
-8.39989
 20
86.9042
 11
-8.57536
 21
86.9463
  0
LINE
  8
0
 10
-8.57536
 20
86.9463
 11
-8.74208
 21
87.0153
  0
LINE
  8
0
 10
-8.74208
 20
87.0153
 11
-8.89595
 21
87.1096
  0
LINE
  8
0
 10
-8.89595
 20
87.1096
 11
-9.03317
 21
87.2268
  0
LINE
  8
0
 10
-9.03317
 20
87.2268
 11
-9.15036
 21
87.364
  0
LINE
  8
0
 10
-9.15036
 20
87.364
 11
-9.24464
 21
87.5179
  0
LINE
  8
0
 10
-9.24464
 20
87.5179
 11
-9.31371
 21
87.6846
  0
LINE
  8
0
 10
-9.31371
 20
87.6846
 11
-9.35583
 21
87.8601
  0
LINE
  8
0
 10
-9.35583
 20
87.8601
 11
-9.37
 21
88.04
  0
LINE
  8
0
 10
-9.37
 20
88.04
 11
-9.35583
 21
88.2199
  0
LINE
  8
0
 10
-9.35583
 20
88.2199
 11
-9.31371
 21
88.3954
  0
LINE
  8
0
 10
-9.31371
 20
88.3954
 11
-9.24464
 21
88.5621
  0
LINE
  8
0
 10
-9.24464
 20
88.5621
 11
-9.15036
 21
88.7159
  0
LINE
  8
0
 10
-9.15036
 20
88.7159
 11
-9.03317
 21
88.8532
  0
LINE
  8
0
 10
-9.03317
 20
88.8532
 11
-8.89595
 21
88.9704
  0
LINE
  8
0
 10
-8.89595
 20
88.9704
 11
-8.74208
 21
89.0647
  0
LINE
  8
0
 10
-8.74208
 20
89.0647
 11
-8.57536
 21
89.1337
  0
LINE
  8
0
 10
-8.57536
 20
89.1337
 11
-8.39989
 21
89.1758
  0
LINE
  8
0
 10
-8.39989
 20
89.1758
 11
-8.21999
 21
89.19
  0
LINE
  8
0
 10
-8.21999
 20
89.19
 11
-8.0401
 21
89.1758
  0
LINE
  8
0
 10
-8.0401
 20
89.1758
 11
-7.86462
 21
89.1337
  0
LINE
  8
0
 10
-7.86462
 20
89.1337
 11
-7.69791
 21
89.0647
  0
LINE
  8
0
 10
-7.69791
 20
89.0647
 11
-7.54404
 21
88.9704
  0
LINE
  8
0
 10
-7.54404
 20
88.9704
 11
-7.40681
 21
88.8532
  0
LINE
  8
0
 10
-7.40681
 20
88.8532
 11
-7.28963
 21
88.7159
  0
LINE
  8
0
 10
-7.28963
 20
88.7159
 11
-7.19534
 21
88.5621
  0
LINE
  8
0
 10
-7.19534
 20
88.5621
 11
-7.12628
 21
88.3954
  0
LINE
  8
0
 10
-7.12628
 20
88.3954
 11
-7.08415
 21
88.2199
  0
LINE
  8
0
 10
-7.08415
 20
88.2199
 11
-7.06999
 21
88.04
  0
LINE
  8
0
 10
-7.06999
 20
88.04
 11
-7.08415
 21
87.8601
  0
LINE
  8
0
 10
-7.08415
 20
87.8601
 11
-7.12628
 21
87.6846
  0
LINE
  8
0
 10
-7.12628
 20
87.6846
 11
-7.19534
 21
87.5179
  0
LINE
  8
0
 10
-7.19534
 20
87.5179
 11
-7.28963
 21
87.364
  0
LINE
  8
0
 10
-7.28963
 20
87.364
 11
-7.40681
 21
87.2268
  0
LINE
  8
0
 10
-7.40681
 20
87.2268
 11
-7.54404
 21
87.1096
  0
LINE
  8
0
 10
-7.54404
 20
87.1096
 11
-7.69791
 21
87.0153
  0
LINE
  8
0
 10
-7.69791
 20
87.0153
 11
-7.86462
 21
86.9463
  0
LINE
  8
0
 10
-7.86462
 20
86.9463
 11
-8.0401
 21
86.9042
  0
LINE
  8
0
 10
-8.0401
 20
86.9042
 11
-8.21999
 21
86.89
  0
LINE
  8
0
 10
-8.21999
 20
86.89
 11
-8.39989
 21
86.9042
  0
LINE
  8
0
 10
-23.6399
 20
36.1042
 11
-23.8154
 21
36.1463
  0
LINE
  8
0
 10
-23.8154
 20
36.1463
 11
-23.9821
 21
36.2153
  0
LINE
  8
0
 10
-23.9821
 20
36.2153
 11
-24.1359
 21
36.3096
  0
LINE
  8
0
 10
-24.1359
 20
36.3096
 11
-24.2732
 21
36.4268
  0
LINE
  8
0
 10
-24.2732
 20
36.4268
 11
-24.3904
 21
36.564
  0
LINE
  8
0
 10
-24.3904
 20
36.564
 11
-24.4846
 21
36.7179
  0
LINE
  8
0
 10
-24.4846
 20
36.7179
 11
-24.5537
 21
36.8846
  0
LINE
  8
0
 10
-24.5537
 20
36.8846
 11
-24.5958
 21
37.0601
  0
LINE
  8
0
 10
-24.5958
 20
37.0601
 11
-24.61
 21
37.24
  0
LINE
  8
0
 10
-24.61
 20
37.24
 11
-24.5958
 21
37.4199
  0
LINE
  8
0
 10
-24.5958
 20
37.4199
 11
-24.5537
 21
37.5954
  0
LINE
  8
0
 10
-24.5537
 20
37.5954
 11
-24.4846
 21
37.7621
  0
LINE
  8
0
 10
-24.4846
 20
37.7621
 11
-24.3904
 21
37.916
  0
LINE
  8
0
 10
-24.3904
 20
37.916
 11
-24.2732
 21
38.0532
  0
LINE
  8
0
 10
-24.2732
 20
38.0532
 11
-24.1359
 21
38.1704
  0
LINE
  8
0
 10
-24.1359
 20
38.1704
 11
-23.9821
 21
38.2646
  0
LINE
  8
0
 10
-23.9821
 20
38.2646
 11
-23.8154
 21
38.3337
  0
LINE
  8
0
 10
-23.8154
 20
38.3337
 11
-23.6399
 21
38.3758
  0
LINE
  8
0
 10
-23.6399
 20
38.3758
 11
-23.46
 21
38.39
  0
LINE
  8
0
 10
-23.46
 20
38.39
 11
-23.2801
 21
38.3758
  0
LINE
  8
0
 10
-23.2801
 20
38.3758
 11
-23.1046
 21
38.3337
  0
LINE
  8
0
 10
-23.1046
 20
38.3337
 11
-22.9379
 21
38.2646
  0
LINE
  8
0
 10
-22.9379
 20
38.2646
 11
-22.784
 21
38.1704
  0
LINE
  8
0
 10
-22.784
 20
38.1704
 11
-22.6468
 21
38.0532
  0
LINE
  8
0
 10
-22.6468
 20
38.0532
 11
-22.5296
 21
37.916
  0
LINE
  8
0
 10
-22.5296
 20
37.916
 11
-22.4353
 21
37.7621
  0
LINE
  8
0
 10
-22.4353
 20
37.7621
 11
-22.3663
 21
37.5954
  0
LINE
  8
0
 10
-22.3663
 20
37.5954
 11
-22.3242
 21
37.4199
  0
LINE
  8
0
 10
-22.3242
 20
37.4199
 11
-22.31
 21
37.24
  0
LINE
  8
0
 10
-22.31
 20
37.24
 11
-22.3242
 21
37.0601
  0
LINE
  8
0
 10
-22.3242
 20
37.0601
 11
-22.3663
 21
36.8846
  0
LINE
  8
0
 10
-22.3663
 20
36.8846
 11
-22.4353
 21
36.7179
  0
LINE
  8
0
 10
-22.4353
 20
36.7179
 11
-22.5296
 21
36.564
  0
LINE
  8
0
 10
-22.5296
 20
36.564
 11
-22.6468
 21
36.4268
  0
LINE
  8
0
 10
-22.6468
 20
36.4268
 11
-22.784
 21
36.3096
  0
LINE
  8
0
 10
-22.784
 20
36.3096
 11
-22.9379
 21
36.2153
  0
LINE
  8
0
 10
-22.9379
 20
36.2153
 11
-23.1046
 21
36.1463
  0
LINE
  8
0
 10
-23.1046
 20
36.1463
 11
-23.2801
 21
36.1042
  0
LINE
  8
0
 10
-23.2801
 20
36.1042
 11
-23.46
 21
36.09
  0
LINE
  8
0
 10
-23.46
 20
36.09
 11
-23.6399
 21
36.1042
  0
LINE
  8
0
 10
24.6201
 20
34.8342
 11
24.4446
 21
34.8763
  0
LINE
  8
0
 10
24.4446
 20
34.8763
 11
24.2779
 21
34.9453
  0
LINE
  8
0
 10
24.2779
 20
34.9453
 11
24.124
 21
35.0396
  0
LINE
  8
0
 10
24.124
 20
35.0396
 11
23.9868
 21
35.1568
  0
LINE
  8
0
 10
23.9868
 20
35.1568
 11
23.8696
 21
35.294
  0
LINE
  8
0
 10
23.8696
 20
35.294
 11
23.7753
 21
35.4479
  0
LINE
  8
0
 10
23.7753
 20
35.4479
 11
23.7063
 21
35.6146
  0
LINE
  8
0
 10
23.7063
 20
35.6146
 11
23.6642
 21
35.7901
  0
LINE
  8
0
 10
23.6642
 20
35.7901
 11
23.65
 21
35.97
  0
LINE
  8
0
 10
23.65
 20
35.97
 11
23.6642
 21
36.1499
  0
LINE
  8
0
 10
23.6642
 20
36.1499
 11
23.7063
 21
36.3254
  0
LINE
  8
0
 10
23.7063
 20
36.3254
 11
23.7753
 21
36.4921
  0
LINE
  8
0
 10
23.7753
 20
36.4921
 11
23.8696
 21
36.646
  0
LINE
  8
0
 10
23.8696
 20
36.646
 11
23.9868
 21
36.7832
  0
LINE
  8
0
 10
23.9868
 20
36.7832
 11
24.124
 21
36.9004
  0
LINE
  8
0
 10
24.124
 20
36.9004
 11
24.2779
 21
36.9946
  0
LINE
  8
0
 10
24.2779
 20
36.9946
 11
24.4446
 21
37.0637
  0
LINE
  8
0
 10
24.4446
 20
37.0637
 11
24.6201
 21
37.1058
  0
LINE
  8
0
 10
24.6201
 20
37.1058
 11
24.8
 21
37.12
  0
LINE
  8
0
 10
24.8
 20
37.12
 11
24.9799
 21
37.1058
  0
LINE
  8
0
 10
24.9799
 20
37.1058
 11
25.1554
 21
37.0637
  0
LINE
  8
0
 10
25.1554
 20
37.0637
 11
25.3221
 21
36.9946
  0
LINE
  8
0
 10
25.3221
 20
36.9946
 11
25.476
 21
36.9004
  0
LINE
  8
0
 10
25.476
 20
36.9004
 11
25.6132
 21
36.7832
  0
LINE
  8
0
 10
25.6132
 20
36.7832
 11
25.7304
 21
36.646
  0
LINE
  8
0
 10
25.7304
 20
36.646
 11
25.8246
 21
36.4921
  0
LINE
  8
0
 10
25.8246
 20
36.4921
 11
25.8937
 21
36.3254
  0
LINE
  8
0
 10
25.8937
 20
36.3254
 11
25.9358
 21
36.1499
  0
LINE
  8
0
 10
25.9358
 20
36.1499
 11
25.95
 21
35.97
  0
LINE
  8
0
 10
25.95
 20
35.97
 11
25.9358
 21
35.7901
  0
LINE
  8
0
 10
25.9358
 20
35.7901
 11
25.8937
 21
35.6146
  0
LINE
  8
0
 10
25.8937
 20
35.6146
 11
25.8246
 21
35.4479
  0
LINE
  8
0
 10
25.8246
 20
35.4479
 11
25.7304
 21
35.294
  0
LINE
  8
0
 10
25.7304
 20
35.294
 11
25.6132
 21
35.1568
  0
LINE
  8
0
 10
25.6132
 20
35.1568
 11
25.476
 21
35.0396
  0
LINE
  8
0
 10
25.476
 20
35.0396
 11
25.3221
 21
34.9453
  0
LINE
  8
0
 10
25.3221
 20
34.9453
 11
25.1554
 21
34.8763
  0
LINE
  8
0
 10
25.1554
 20
34.8763
 11
24.9799
 21
34.8342
  0
LINE
  8
0
 10
24.9799
 20
34.8342
 11
24.8
 21
34.82
  0
LINE
  8
0
 10
24.8
 20
34.82
 11
24.6201
 21
34.8342
  0
LINE
  8
0
 10
146
 20
19.9
 11
171
 21
19.9
  0
LINE
  8
0
 10
171
 20
19.9
 11
171
 21
17
  0
LINE
  8
0
 10
171
 20
17
 11
196
 21
17
  0
LINE
  8
0
 10
196
 20
17
 11
196
 21
19.9
  0
LINE
  8
0
 10
196
 20
19.9
 11
208.5
 21
19.9
  0
LINE
  8
0
 10
208.5
 20
19.9
 11
208.5
 21
23.5
  0
LINE
  8
0
 10
208.5
 20
23.5
 11
205.6
 21
23.5
  0
LINE
  8
0
 10
205.6
 20
23.5
 11
205.6
 21
36.5
  0
LINE
  8
0
 10
205.6
 20
36.5
 11
208.5
 21
36.5
  0
LINE
  8
0
 10
208.5
 20
36.5
 11
208.5
 21
40.1
  0
LINE
  8
0
 10
208.5
 20
40.1
 11
196
 21
40.1
  0
LINE
  8
0
 10
196
 20
40.1
 11
196
 21
43
  0
LINE
  8
0
 10
196
 20
43
 11
171
 21
43
  0
LINE
  8
0
 10
171
 20
43
 11
171
 21
40.1
  0
LINE
  8
0
 10
171
 20
40.1
 11
146
 21
40.1
  0
LINE
  8
0
 10
146
 20
40.1
 11
146
 21
43
  0
LINE
  8
0
 10
146
 20
43
 11
121
 21
43
  0
LINE
  8
0
 10
121
 20
43
 11
121
 21
40.1
  0
LINE
  8
0
 10
121
 20
40.1
 11
111.4
 21
40.1
  0
LINE
  8
0
 10
111.4
 20
40.1
 11
111.4
 21
36.5
  0
LINE
  8
0
 10
111.4
 20
36.5
 11
108.5
 21
36.5
  0
LINE
  8
0
 10
108.5
 20
36.5
 11
108.5
 21
23.5
  0
LINE
  8
0
 10
108.5
 20
23.5
 11
111.4
 21
23.5
  0
LINE
  8
0
 10
111.4
 20
23.5
 11
111.4
 21
19.9
  0
LINE
  8
0
 10
111.4
 20
19.9
 11
121
 21
19.9
  0
LINE
  8
0
 10
121
 20
19.9
 11
121
 21
17
  0
LINE
  8
0
 10
121
 20
17
 11
146
 21
17
  0
LINE
  8
0
 10
146
 20
17
 11
146
 21
19.9
  0
LINE
  8
0
 10
169.609
 20
27.5308
 11
169.227
 21
27.6223
  0
LINE
  8
0
 10
169.227
 20
27.6223
 11
168.865
 21
27.7725
  0
LINE
  8
0
 10
168.865
 20
27.7725
 11
168.531
 21
27.9774
  0
LINE
  8
0
 10
168.531
 20
27.9774
 11
168.232
 21
28.2322
  0
LINE
  8
0
 10
168.232
 20
28.2322
 11
167.977
 21
28.5305
  0
LINE
  8
0
 10
167.977
 20
28.5305
 11
167.772
 21
28.865
  0
LINE
  8
0
 10
167.772
 20
28.865
 11
167.622
 21
29.2274
  0
LINE
  8
0
 10
167.622
 20
29.2274
 11
167.531
 21
29.6089
  0
LINE
  8
0
 10
167.531
 20
29.6089
 11
167.5
 21
30
  0
LINE
  8
0
 10
167.5
 20
30
 11
167.531
 21
30.3911
  0
LINE
  8
0
 10
167.531
 20
30.3911
 11
167.622
 21
30.7725
  0
LINE
  8
0
 10
167.622
 20
30.7725
 11
167.772
 21
31.135
  0
LINE
  8
0
 10
167.772
 20
31.135
 11
167.977
 21
31.4695
  0
LINE
  8
0
 10
167.977
 20
31.4695
 11
168.232
 21
31.7678
  0
LINE
  8
0
 10
168.232
 20
31.7678
 11
168.531
 21
32.0225
  0
LINE
  8
0
 10
168.531
 20
32.0225
 11
168.865
 21
32.2275
  0
LINE
  8
0
 10
168.865
 20
32.2275
 11
169.227
 21
32.3776
  0
LINE
  8
0
 10
169.227
 20
32.3776
 11
169.609
 21
32.4692
  0
LINE
  8
0
 10
169.609
 20
32.4692
 11
170
 21
32.5
  0
LINE
  8
0
 10
170
 20
32.5
 11
170.391
 21
32.4692
  0
LINE
  8
0
 10
170.391
 20
32.4692
 11
170.773
 21
32.3776
  0
LINE
  8
0
 10
170.773
 20
32.3776
 11
171.135
 21
32.2275
  0
LINE
  8
0
 10
171.135
 20
32.2275
 11
171.469
 21
32.0225
  0
LINE
  8
0
 10
171.469
 20
32.0225
 11
171.768
 21
31.7678
  0
LINE
  8
0
 10
171.768
 20
31.7678
 11
172.023
 21
31.4695
  0
LINE
  8
0
 10
172.023
 20
31.4695
 11
172.228
 21
31.135
  0
LINE
  8
0
 10
172.228
 20
31.135
 11
172.378
 21
30.7725
  0
LINE
  8
0
 10
172.378
 20
30.7725
 11
172.469
 21
30.3911
  0
LINE
  8
0
 10
172.469
 20
30.3911
 11
172.5
 21
30
  0
LINE
  8
0
 10
172.5
 20
30
 11
172.469
 21
29.6089
  0
LINE
  8
0
 10
172.469
 20
29.6089
 11
172.378
 21
29.2274
  0
LINE
  8
0
 10
172.378
 20
29.2274
 11
172.228
 21
28.865
  0
LINE
  8
0
 10
172.228
 20
28.865
 11
172.023
 21
28.5305
  0
LINE
  8
0
 10
172.023
 20
28.5305
 11
171.768
 21
28.2322
  0
LINE
  8
0
 10
171.768
 20
28.2322
 11
171.469
 21
27.9774
  0
LINE
  8
0
 10
171.469
 20
27.9774
 11
171.135
 21
27.7725
  0
LINE
  8
0
 10
171.135
 20
27.7725
 11
170.773
 21
27.6223
  0
LINE
  8
0
 10
170.773
 20
27.6223
 11
170.391
 21
27.5308
  0
LINE
  8
0
 10
170.391
 20
27.5308
 11
170
 21
27.5
  0
LINE
  8
0
 10
170
 20
27.5
 11
169.609
 21
27.5308
  0
LINE
  8
0
 10
179.609
 20
27.5308
 11
179.227
 21
27.6223
  0
LINE
  8
0
 10
179.227
 20
27.6223
 11
178.865
 21
27.7725
  0
LINE
  8
0
 10
178.865
 20
27.7725
 11
178.531
 21
27.9774
  0
LINE
  8
0
 10
178.531
 20
27.9774
 11
178.232
 21
28.2322
  0
LINE
  8
0
 10
178.232
 20
28.2322
 11
177.977
 21
28.5305
  0
LINE
  8
0
 10
177.977
 20
28.5305
 11
177.772
 21
28.865
  0
LINE
  8
0
 10
177.772
 20
28.865
 11
177.622
 21
29.2274
  0
LINE
  8
0
 10
177.622
 20
29.2274
 11
177.531
 21
29.6089
  0
LINE
  8
0
 10
177.531
 20
29.6089
 11
177.5
 21
30
  0
LINE
  8
0
 10
177.5
 20
30
 11
177.531
 21
30.3911
  0
LINE
  8
0
 10
177.531
 20
30.3911
 11
177.622
 21
30.7725
  0
LINE
  8
0
 10
177.622
 20
30.7725
 11
177.772
 21
31.135
  0
LINE
  8
0
 10
177.772
 20
31.135
 11
177.977
 21
31.4695
  0
LINE
  8
0
 10
177.977
 20
31.4695
 11
178.232
 21
31.7678
  0
LINE
  8
0
 10
178.232
 20
31.7678
 11
178.531
 21
32.0225
  0
LINE
  8
0
 10
178.531
 20
32.0225
 11
178.865
 21
32.2275
  0
LINE
  8
0
 10
178.865
 20
32.2275
 11
179.227
 21
32.3776
  0
LINE
  8
0
 10
179.227
 20
32.3776
 11
179.609
 21
32.4692
  0
LINE
  8
0
 10
179.609
 20
32.4692
 11
180
 21
32.5
  0
LINE
  8
0
 10
180
 20
32.5
 11
180.391
 21
32.4692
  0
LINE
  8
0
 10
180.391
 20
32.4692
 11
180.773
 21
32.3776
  0
LINE
  8
0
 10
180.773
 20
32.3776
 11
181.135
 21
32.2275
  0
LINE
  8
0
 10
181.135
 20
32.2275
 11
181.469
 21
32.0225
  0
LINE
  8
0
 10
181.469
 20
32.0225
 11
181.768
 21
31.7678
  0
LINE
  8
0
 10
181.768
 20
31.7678
 11
182.023
 21
31.4695
  0
LINE
  8
0
 10
182.023
 20
31.4695
 11
182.228
 21
31.135
  0
LINE
  8
0
 10
182.228
 20
31.135
 11
182.378
 21
30.7725
  0
LINE
  8
0
 10
182.378
 20
30.7725
 11
182.469
 21
30.3911
  0
LINE
  8
0
 10
182.469
 20
30.3911
 11
182.5
 21
30
  0
LINE
  8
0
 10
182.5
 20
30
 11
182.469
 21
29.6089
  0
LINE
  8
0
 10
182.469
 20
29.6089
 11
182.378
 21
29.2274
  0
LINE
  8
0
 10
182.378
 20
29.2274
 11
182.228
 21
28.865
  0
LINE
  8
0
 10
182.228
 20
28.865
 11
182.023
 21
28.5305
  0
LINE
  8
0
 10
182.023
 20
28.5305
 11
181.768
 21
28.2322
  0
LINE
  8
0
 10
181.768
 20
28.2322
 11
181.469
 21
27.9774
  0
LINE
  8
0
 10
181.469
 20
27.9774
 11
181.135
 21
27.7725
  0
LINE
  8
0
 10
181.135
 20
27.7725
 11
180.773
 21
27.6223
  0
LINE
  8
0
 10
180.773
 20
27.6223
 11
180.391
 21
27.5308
  0
LINE
  8
0
 10
180.391
 20
27.5308
 11
180
 21
27.5
  0
LINE
  8
0
 10
180
 20
27.5
 11
179.609
 21
27.5308
  0
LINE
  8
0
 10
62.625
 20
-10.1
 11
79.375
 21
-10.1
  0
LINE
  8
0
 10
79.375
 20
-10.1
 11
79.375
 21
-13
  0
LINE
  8
0
 10
79.375
 20
-13
 11
96.125
 21
-13
  0
LINE
  8
0
 10
96.125
 20
-13
 11
96.125
 21
-10.1
  0
LINE
  8
0
 10
96.125
 20
-10.1
 11
104.5
 21
-10.1
  0
LINE
  8
0
 10
104.5
 20
-10.1
 11
104.5
 21
-6.5
  0
LINE
  8
0
 10
104.5
 20
-6.5
 11
101.6
 21
-6.5
  0
LINE
  8
0
 10
101.6
 20
-6.5
 11
101.6
 21
6.5
  0
LINE
  8
0
 10
101.6
 20
6.5
 11
104.5
 21
6.5
  0
LINE
  8
0
 10
104.5
 20
6.5
 11
104.5
 21
10.1
  0
LINE
  8
0
 10
104.5
 20
10.1
 11
96.125
 21
10.1
  0
LINE
  8
0
 10
96.125
 20
10.1
 11
96.125
 21
13
  0
LINE
  8
0
 10
96.125
 20
13
 11
79.375
 21
13
  0
LINE
  8
0
 10
79.375
 20
13
 11
79.375
 21
10.1
  0
LINE
  8
0
 10
79.375
 20
10.1
 11
62.625
 21
10.1
  0
LINE
  8
0
 10
62.625
 20
10.1
 11
62.625
 21
13
  0
LINE
  8
0
 10
62.625
 20
13
 11
45.875
 21
13
  0
LINE
  8
0
 10
45.875
 20
13
 11
45.875
 21
10.1
  0
LINE
  8
0
 10
45.875
 20
10.1
 11
40.4
 21
10.1
  0
LINE
  8
0
 10
40.4
 20
10.1
 11
40.4
 21
6.5
  0
LINE
  8
0
 10
40.4
 20
6.5
 11
37.5
 21
6.5
  0
LINE
  8
0
 10
37.5
 20
6.5
 11
37.5
 21
-6.5
  0
LINE
  8
0
 10
37.5
 20
-6.5
 11
40.4
 21
-6.5
  0
LINE
  8
0
 10
40.4
 20
-6.5
 11
40.4
 21
-10.1
  0
LINE
  8
0
 10
40.4
 20
-10.1
 11
45.875
 21
-10.1
  0
LINE
  8
0
 10
45.875
 20
-10.1
 11
45.875
 21
-13
  0
LINE
  8
0
 10
45.875
 20
-13
 11
62.625
 21
-13
  0
LINE
  8
0
 10
62.625
 20
-13
 11
62.625
 21
-10.1
  0
LINE
  8
0
 10
146
 20
-10.1
 11
171
 21
-10.1
  0
LINE
  8
0
 10
171
 20
-10.1
 11
171
 21
-13
  0
LINE
  8
0
 10
171
 20
-13
 11
196
 21
-13
  0
LINE
  8
0
 10
196
 20
-13
 11
196
 21
-10.1
  0
LINE
  8
0
 10
196
 20
-10.1
 11
208.5
 21
-10.1
  0
LINE
  8
0
 10
208.5
 20
-10.1
 11
208.5
 21
-6.5
  0
LINE
  8
0
 10
208.5
 20
-6.5
 11
205.6
 21
-6.5
  0
LINE
  8
0
 10
205.6
 20
-6.5
 11
205.6
 21
6.5
  0
LINE
  8
0
 10
205.6
 20
6.5
 11
208.5
 21
6.5
  0
LINE
  8
0
 10
208.5
 20
6.5
 11
208.5
 21
10.1
  0
LINE
  8
0
 10
208.5
 20
10.1
 11
196
 21
10.1
  0
LINE
  8
0
 10
196
 20
10.1
 11
196
 21
13
  0
LINE
  8
0
 10
196
 20
13
 11
171
 21
13
  0
LINE
  8
0
 10
171
 20
13
 11
171
 21
10.1
  0
LINE
  8
0
 10
171
 20
10.1
 11
146
 21
10.1
  0
LINE
  8
0
 10
146
 20
10.1
 11
146
 21
13
  0
LINE
  8
0
 10
146
 20
13
 11
121
 21
13
  0
LINE
  8
0
 10
121
 20
13
 11
121
 21
10.1
  0
LINE
  8
0
 10
121
 20
10.1
 11
111.4
 21
10.1
  0
LINE
  8
0
 10
111.4
 20
10.1
 11
111.4
 21
6.5
  0
LINE
  8
0
 10
111.4
 20
6.5
 11
108.5
 21
6.5
  0
LINE
  8
0
 10
108.5
 20
6.5
 11
108.5
 21
-6.5
  0
LINE
  8
0
 10
108.5
 20
-6.5
 11
111.4
 21
-6.5
  0
LINE
  8
0
 10
111.4
 20
-6.5
 11
111.4
 21
-10.1
  0
LINE
  8
0
 10
111.4
 20
-10.1
 11
121
 21
-10.1
  0
LINE
  8
0
 10
121
 20
-10.1
 11
121
 21
-13
  0
LINE
  8
0
 10
121
 20
-13
 11
146
 21
-13
  0
LINE
  8
0
 10
146
 20
-13
 11
146
 21
-10.1
  0
LINE
  8
0
 10
169.609
 20
-2.46921
 11
169.227
 21
-2.37764
  0
LINE
  8
0
 10
169.227
 20
-2.37764
 11
168.865
 21
-2.22751
  0
LINE
  8
0
 10
168.865
 20
-2.22751
 11
168.531
 21
-2.02254
  0
LINE
  8
0
 10
168.531
 20
-2.02254
 11
168.232
 21
-1.76776
  0
LINE
  8
0
 10
168.232
 20
-1.76776
 11
167.977
 21
-1.46945
  0
LINE
  8
0
 10
167.977
 20
-1.46945
 11
167.772
 21
-1.13496
  0
LINE
  8
0
 10
167.772
 20
-1.13496
 11
167.622
 21
-0.772537
  0
LINE
  8
0
 10
167.622
 20
-0.772537
 11
167.531
 21
-0.391083
  0
LINE
  8
0
 10
167.531
 20
-0.391083
 11
167.5
 21
0
  0
LINE
  8
0
 10
167.5
 20
0
 11
167.531
 21
0.391083
  0
LINE
  8
0
 10
167.531
 20
0.391083
 11
167.622
 21
0.772537
  0
LINE
  8
0
 10
167.622
 20
0.772537
 11
167.772
 21
1.13496
  0
LINE
  8
0
 10
167.772
 20
1.13496
 11
167.977
 21
1.46945
  0
LINE
  8
0
 10
167.977
 20
1.46945
 11
168.232
 21
1.76776
  0
LINE
  8
0
 10
168.232
 20
1.76776
 11
168.531
 21
2.02254
  0
LINE
  8
0
 10
168.531
 20
2.02254
 11
168.865
 21
2.22751
  0
LINE
  8
0
 10
168.865
 20
2.22751
 11
169.227
 21
2.37764
  0
LINE
  8
0
 10
169.227
 20
2.37764
 11
169.609
 21
2.46921
  0
LINE
  8
0
 10
169.609
 20
2.46921
 11
170
 21
2.5
  0
LINE
  8
0
 10
170
 20
2.5
 11
170.391
 21
2.46921
  0
LINE
  8
0
 10
170.391
 20
2.46921
 11
170.773
 21
2.37764
  0
LINE
  8
0
 10
170.773
 20
2.37764
 11
171.135
 21
2.22751
  0
LINE
  8
0
 10
171.135
 20
2.22751
 11
171.469
 21
2.02254
  0
LINE
  8
0
 10
171.469
 20
2.02254
 11
171.768
 21
1.76776
  0
LINE
  8
0
 10
171.768
 20
1.76776
 11
172.023
 21
1.46945
  0
LINE
  8
0
 10
172.023
 20
1.46945
 11
172.228
 21
1.13496
  0
LINE
  8
0
 10
172.228
 20
1.13496
 11
172.378
 21
0.772537
  0
LINE
  8
0
 10
172.378
 20
0.772537
 11
172.469
 21
0.391083
  0
LINE
  8
0
 10
172.469
 20
0.391083
 11
172.5
 21
0
  0
LINE
  8
0
 10
172.5
 20
0
 11
172.469
 21
-0.391083
  0
LINE
  8
0
 10
172.469
 20
-0.391083
 11
172.378
 21
-0.772537
  0
LINE
  8
0
 10
172.378
 20
-0.772537
 11
172.228
 21
-1.13496
  0
LINE
  8
0
 10
172.228
 20
-1.13496
 11
172.023
 21
-1.46945
  0
LINE
  8
0
 10
172.023
 20
-1.46945
 11
171.768
 21
-1.76776
  0
LINE
  8
0
 10
171.768
 20
-1.76776
 11
171.469
 21
-2.02254
  0
LINE
  8
0
 10
171.469
 20
-2.02254
 11
171.135
 21
-2.22751
  0
LINE
  8
0
 10
171.135
 20
-2.22751
 11
170.773
 21
-2.37764
  0
LINE
  8
0
 10
170.773
 20
-2.37764
 11
170.391
 21
-2.46921
  0
LINE
  8
0
 10
170.391
 20
-2.46921
 11
170
 21
-2.5
  0
LINE
  8
0
 10
170
 20
-2.5
 11
169.609
 21
-2.46921
  0
LINE
  8
0
 10
179.609
 20
-2.46921
 11
179.227
 21
-2.37764
  0
LINE
  8
0
 10
179.227
 20
-2.37764
 11
178.865
 21
-2.22751
  0
LINE
  8
0
 10
178.865
 20
-2.22751
 11
178.531
 21
-2.02254
  0
LINE
  8
0
 10
178.531
 20
-2.02254
 11
178.232
 21
-1.76776
  0
LINE
  8
0
 10
178.232
 20
-1.76776
 11
177.977
 21
-1.46945
  0
LINE
  8
0
 10
177.977
 20
-1.46945
 11
177.772
 21
-1.13496
  0
LINE
  8
0
 10
177.772
 20
-1.13496
 11
177.622
 21
-0.772537
  0
LINE
  8
0
 10
177.622
 20
-0.772537
 11
177.531
 21
-0.391083
  0
LINE
  8
0
 10
177.531
 20
-0.391083
 11
177.5
 21
0
  0
LINE
  8
0
 10
177.5
 20
0
 11
177.531
 21
0.391083
  0
LINE
  8
0
 10
177.531
 20
0.391083
 11
177.622
 21
0.772537
  0
LINE
  8
0
 10
177.622
 20
0.772537
 11
177.772
 21
1.13496
  0
LINE
  8
0
 10
177.772
 20
1.13496
 11
177.977
 21
1.46945
  0
LINE
  8
0
 10
177.977
 20
1.46945
 11
178.232
 21
1.76776
  0
LINE
  8
0
 10
178.232
 20
1.76776
 11
178.531
 21
2.02254
  0
LINE
  8
0
 10
178.531
 20
2.02254
 11
178.865
 21
2.22751
  0
LINE
  8
0
 10
178.865
 20
2.22751
 11
179.227
 21
2.37764
  0
LINE
  8
0
 10
179.227
 20
2.37764
 11
179.609
 21
2.46921
  0
LINE
  8
0
 10
179.609
 20
2.46921
 11
180
 21
2.5
  0
LINE
  8
0
 10
180
 20
2.5
 11
180.391
 21
2.46921
  0
LINE
  8
0
 10
180.391
 20
2.46921
 11
180.773
 21
2.37764
  0
LINE
  8
0
 10
180.773
 20
2.37764
 11
181.135
 21
2.22751
  0
LINE
  8
0
 10
181.135
 20
2.22751
 11
181.469
 21
2.02254
  0
LINE
  8
0
 10
181.469
 20
2.02254
 11
181.768
 21
1.76776
  0
LINE
  8
0
 10
181.768
 20
1.76776
 11
182.023
 21
1.46945
  0
LINE
  8
0
 10
182.023
 20
1.46945
 11
182.228
 21
1.13496
  0
LINE
  8
0
 10
182.228
 20
1.13496
 11
182.378
 21
0.772537
  0
LINE
  8
0
 10
182.378
 20
0.772537
 11
182.469
 21
0.391083
  0
LINE
  8
0
 10
182.469
 20
0.391083
 11
182.5
 21
0
  0
LINE
  8
0
 10
182.5
 20
0
 11
182.469
 21
-0.391083
  0
LINE
  8
0
 10
182.469
 20
-0.391083
 11
182.378
 21
-0.772537
  0
LINE
  8
0
 10
182.378
 20
-0.772537
 11
182.228
 21
-1.13496
  0
LINE
  8
0
 10
182.228
 20
-1.13496
 11
182.023
 21
-1.46945
  0
LINE
  8
0
 10
182.023
 20
-1.46945
 11
181.768
 21
-1.76776
  0
LINE
  8
0
 10
181.768
 20
-1.76776
 11
181.469
 21
-2.02254
  0
LINE
  8
0
 10
181.469
 20
-2.02254
 11
181.135
 21
-2.22751
  0
LINE
  8
0
 10
181.135
 20
-2.22751
 11
180.773
 21
-2.37764
  0
LINE
  8
0
 10
180.773
 20
-2.37764
 11
180.391
 21
-2.46921
  0
LINE
  8
0
 10
180.391
 20
-2.46921
 11
180
 21
-2.5
  0
LINE
  8
0
 10
180
 20
-2.5
 11
179.609
 21
-2.46921
  0
LINE
  8
0
 10
-8.375
 20
-10.1
 11
8.375
 21
-10.1
  0
LINE
  8
0
 10
8.375
 20
-10.1
 11
8.375
 21
-13
  0
LINE
  8
0
 10
8.375
 20
-13
 11
25.125
 21
-13
  0
LINE
  8
0
 10
25.125
 20
-13
 11
25.125
 21
-10.1
  0
LINE
  8
0
 10
25.125
 20
-10.1
 11
33.5
 21
-10.1
  0
LINE
  8
0
 10
33.5
 20
-10.1
 11
33.5
 21
-6.5
  0
LINE
  8
0
 10
33.5
 20
-6.5
 11
30.6
 21
-6.5
  0
LINE
  8
0
 10
30.6
 20
-6.5
 11
30.6
 21
6.5
  0
LINE
  8
0
 10
30.6
 20
6.5
 11
33.5
 21
6.5
  0
LINE
  8
0
 10
33.5
 20
6.5
 11
33.5
 21
10.1
  0
LINE
  8
0
 10
33.5
 20
10.1
 11
25.125
 21
10.1
  0
LINE
  8
0
 10
25.125
 20
10.1
 11
25.125
 21
13
  0
LINE
  8
0
 10
25.125
 20
13
 11
8.375
 21
13
  0
LINE
  8
0
 10
8.375
 20
13
 11
8.375
 21
10.1
  0
LINE
  8
0
 10
8.375
 20
10.1
 11
-8.375
 21
10.1
  0
LINE
  8
0
 10
-8.375
 20
10.1
 11
-8.375
 21
13
  0
LINE
  8
0
 10
-8.375
 20
13
 11
-25.125
 21
13
  0
LINE
  8
0
 10
-25.125
 20
13
 11
-25.125
 21
10.1
  0
LINE
  8
0
 10
-25.125
 20
10.1
 11
-30.6
 21
10.1
  0
LINE
  8
0
 10
-30.6
 20
10.1
 11
-30.6
 21
6.5
  0
LINE
  8
0
 10
-30.6
 20
6.5
 11
-33.5
 21
6.5
  0
LINE
  8
0
 10
-33.5
 20
6.5
 11
-33.5
 21
-6.5
  0
LINE
  8
0
 10
-33.5
 20
-6.5
 11
-30.6
 21
-6.5
  0
LINE
  8
0
 10
-30.6
 20
-6.5
 11
-30.6
 21
-10.1
  0
LINE
  8
0
 10
-30.6
 20
-10.1
 11
-25.125
 21
-10.1
  0
LINE
  8
0
 10
-25.125
 20
-10.1
 11
-25.125
 21
-13
  0
LINE
  8
0
 10
-25.125
 20
-13
 11
-8.375
 21
-13
  0
LINE
  8
0
 10
-8.375
 20
-13
 11
-8.375
 21
-10.1
  0
LINE
  8
0
 10
12.5
 20
-5.5
 11
12.5
 21
5.5
  0
LINE
  8
0
 10
12.5
 20
5.5
 11
21.5
 21
5.5
  0
LINE
  8
0
 10
21.5
 20
5.5
 11
21.5
 21
-5.5
  0
LINE
  8
0
 10
21.5
 20
-5.5
 11
12.5
 21
-5.5
  0
LINE
  8
0
 10
-18
 20
-5.5
 11
-18
 21
5.5
  0
LINE
  8
0
 10
-18
 20
5.5
 11
-6
 21
5.5
  0
LINE
  8
0
 10
-6
 20
5.5
 11
-6
 21
-5.5
  0
LINE
  8
0
 10
-6
 20
-5.5
 11
-18
 21
-5.5
  0
ENDSEC
  0
SECTION
  2
OBJECTS
  0
DICTIONARY
  0
ENDSEC
  0
EOF
